<svg xmlns="http://www.w3.org/2000/svg" viewBox="0 17.350000381469727 67 36.75" data-asc="1.069" width="67" height="36.75"><defs/><g fill="#000000"><g transform="translate(0, 0)"><path d="M25.20 33.00Q25.20 36.05 24.75 39.07Q24.30 42.10 23.18 44.77Q22.05 47.45 20.02 49.52Q18 51.60 14.88 52.77Q11.75 53.95 7.30 53.95Q6.25 53.95 4.85 53.87Q3.45 53.80 2.50 53.60L2.50 47.55Q3.50 47.75 4.60 47.90Q5.70 48.05 6.80 48.05Q10.15 48.05 12.33 47.25Q14.50 46.45 15.75 44.95Q17 43.45 17.57 41.40Q18.15 39.35 18.25 36.90L17.95 36.90Q17.25 38.05 16.27 39.00Q15.30 39.95 13.83 40.50Q12.35 41.05 10.05 41.05Q5.50 41.05 2.75 38.10Q0 35.15 0 29.75Q0 25.85 1.48 23.07Q2.95 20.30 5.70 18.82Q8.45 17.35 12.15 17.35Q14.90 17.35 17.27 18.30Q19.65 19.25 21.43 21.17Q23.20 23.10 24.20 26.05Q25.20 29.00 25.20 33.00M12.30 23.40Q10.10 23.40 8.70 24.90Q7.30 26.40 7.30 29.65Q7.30 32.25 8.50 33.75Q9.70 35.25 12.15 35.25Q13.85 35.25 15.08 34.50Q16.30 33.75 17 32.62Q17.70 31.50 17.70 30.30Q17.70 29.05 17.35 27.82Q17 26.60 16.32 25.60Q15.65 24.60 14.65 24.00Q13.65 23.40 12.30 23.40ZM53.80 33.00Q53.80 36.05 53.35 39.07Q52.90 42.10 51.78 44.77Q50.65 47.45 48.63 49.52Q46.60 51.60 43.48 52.77Q40.35 53.95 35.90 53.95Q34.85 53.95 33.45 53.87Q32.05 53.80 31.10 53.60L31.10 47.55Q32.10 47.75 33.20 47.90Q34.30 48.05 35.40 48.05Q38.75 48.05 40.92 47.25Q43.10 46.45 44.35 44.95Q45.60 43.45 46.17 41.40Q46.75 39.35 46.85 36.90L46.55 36.90Q45.85 38.05 44.88 39.00Q43.90 39.95 42.42 40.50Q40.95 41.05 38.65 41.05Q34.10 41.05 31.35 38.10Q28.60 35.15 28.60 29.75Q28.60 25.85 30.07 23.07Q31.55 20.30 34.30 18.82Q37.05 17.35 40.75 17.35Q43.50 17.35 45.88 18.30Q48.25 19.25 50.03 21.17Q51.80 23.10 52.80 26.05Q53.80 29.00 53.80 33.00M40.90 23.40Q38.70 23.40 37.30 24.90Q35.90 26.40 35.90 29.65Q35.90 32.25 37.10 33.75Q38.30 35.25 40.75 35.25Q42.45 35.25 43.67 34.50Q44.90 33.75 45.60 32.62Q46.30 31.50 46.30 30.30Q46.30 29.05 45.95 27.82Q45.60 26.60 44.92 25.60Q44.25 24.60 43.25 24.00Q42.25 23.40 40.90 23.40ZM65.75 41.60L59.80 41.60L58.55 17.75L67 17.75L65.75 41.60M58.45 49.95Q58.45 47.65 59.70 46.72Q60.95 45.80 62.75 45.80Q64.50 45.80 65.75 46.72Q67 47.65 67 49.95Q67 52.15 65.75 53.12Q64.50 54.10 62.75 54.10Q60.95 54.10 59.70 53.12Q58.45 52.15 58.45 49.95Z"/></g></g></svg>